<?xml version="1.0" encoding="UTF-8"?>
<svg version="1.1" xmlns="http://www.w3.org/2000/svg" width="153" height="153">
<path d="M0 0 C0.33 -0.99 0.66 -1.98 1 -3 C3.66666667 -1.66666667 6.33333333 -0.33333333 9 1 C8.125 6.75 8.125 6.75 7 9 C6.45081209 20.12702468 11.33228953 32.593158 18.625 40.8125 C21.25053059 43.48869872 23.95444854 45.81574703 27 48 C27.495 47.01 27.495 47.01 28 46 C27.34 46 26.68 46 26 46 C26 44.02 26 42.04 26 40 C24.515 40.495 24.515 40.495 23 41 C23.33 38.69 23.66 36.38 24 34 C23.34 33.67 22.68 33.34 22 33 C22.59927826 29.64404172 23.84622436 27.62198774 26 25 C25.01 24.01 25.01 24.01 24 23 C24 22.01 24 21.02 24 20 C25.98 19.34 27.96 18.68 30 18 C30 17.01 30 16.02 30 15 C30.99 14.67 31.98 14.34 33 14 C30.69 12.68 28.38 11.36 26 10 C26 9.34 26 8.68 26 8 C32.45512034 7.43868519 37.15439723 9.36536213 43 12 C40.35971892 9.92464393 37.77217731 8.27321903 34.75 6.8125 C33.69039062 6.29623047 33.69039062 6.29623047 32.609375 5.76953125 C32.07828125 5.51558594 31.5471875 5.26164062 31 5 C31 4.34 31 3.68 31 3 C38.67980285 3.56887429 45.78634629 5.41510462 51.875 10.3125 C53.8539464 12.28968963 53.8539464 12.28968963 56.3125 11.75 C56.869375 11.5025 57.42625 11.255 58 11 C58.226875 11.78375 58.45375 12.5675 58.6875 13.375 C59.74401615 16.23869774 59.74401615 16.23869774 62.5625 16.9375 C63.366875 17.288125 64.17125 17.63875 65 18 C66.47368421 23.05263158 66.47368421 23.05263158 65 26 C67.97 26 70.94 26 74 26 C74.09765625 32.93359375 74.09765625 32.93359375 74 35 C73 36 73 36 69.125 36.0625 C67.74995685 36.04474114 66.37494706 36.02407495 65 36 C64.01 36 63.02 36 62 36 C62.680625 36.7425 63.36125 37.485 64.0625 38.25 C66 41 66 41 65.9375 43.1875 C65 45 65 45 62 47 C58.47394485 46.90124722 57.14169836 46.12379502 54.46484375 43.78515625 C53.63082031 42.88667969 52.79679687 41.98820312 51.9375 41.0625 C47.99206598 36.80277948 47.99206598 36.80277948 43 34 C42.66312322 39.51635726 43.58145391 42.93713507 46 47.875 C48.49665922 53.33563074 50.36229413 57.98133988 49 64 C48.36186897 65.49169945 47.69251801 66.97025861 47 68.4375 C43.66732648 75.81866776 44.68966366 84.08642323 45 92 C45.94101563 91.81566406 46.88203125 91.63132812 47.8515625 91.44140625 C51.17507959 90.9754541 52.26000614 91.20846555 55 93 C55 94.32 55 95.64 55 97 C54.21625 96.979375 53.4325 96.95875 52.625 96.9375 C50.01885039 96.81315937 50.01885039 96.81315937 48 98 C42.91891892 97.74594595 42.91891892 97.74594595 40 96 C36.52358651 91.01178484 34 86.12514474 34 80 C31.46255685 80.54708727 31.46255685 80.54708727 29 82 C27.92424122 84.95361173 27.92424122 84.95361173 28 88 C28.66 88.66 29.32 89.32 30 90 C30 90.99 30 91.98 30 93 C29.01 93 28.02 93 27 93 C27.495 93.598125 27.99 94.19625 28.5 94.8125 C30 97 30 97 30 100 C25.37078475 101.0161692 21.65537393 100.83796731 17 100 C16.67 100.66 16.34 101.32 16 102 C14.515 101.505 14.515 101.505 13 101 C12.505 97.04 12.505 97.04 12 93 C9.36 93 6.72 93 4 93 C3.505 94.98 3.505 94.98 3 97 C1.25034642 97.05429959 -0.49979787 97.09292823 -2.25 97.125 C-3.22453125 97.14820312 -4.1990625 97.17140625 -5.203125 97.1953125 C-8.0196498 96.99862781 -9.60949036 96.44568916 -12 95 C-12 94.34 -12 93.68 -12 93 C-12.58007812 92.90203125 -13.16015625 92.8040625 -13.7578125 92.703125 C-22.03898437 91.11795019 -27.03594072 87.75663624 -32 81 C-34.13829064 77.30658889 -34.2968432 74.23508075 -33.59765625 70.0078125 C-32.48382498 66.26592184 -31.00406675 64.54692615 -28 62 C-24.1875 62.125 -24.1875 62.125 -21 63 C-21 63.99 -21 64.98 -21 66 C-21.9590625 66.309375 -21.9590625 66.309375 -22.9375 66.625 C-25.34925077 67.89538209 -25.34925077 67.89538209 -25.75 71.125 C-25.8325 72.07375 -25.915 73.0225 -26 74 C-25.34 74.33 -24.68 74.66 -24 75 C-24 74.34 -24 73.68 -24 73 C-23.21625 73.185625 -22.4325 73.37125 -21.625 73.5625 C-19.02910225 74.25962266 -19.02910225 74.25962266 -17 73 C-16.01 73.33 -15.02 73.66 -14 74 C-14 73.34 -14 72.68 -14 72 C-13.01 71.67 -12.02 71.34 -11 71 C-10.505 69.515 -10.505 69.515 -10 68 C-8.35 68.33 -6.7 68.66 -5 69 C-5.185625 68.360625 -5.37125 67.72125 -5.5625 67.0625 C-5.706875 66.381875 -5.85125 65.70125 -6 65 C-5 64 -5 64 -2.93359375 63.90234375 C-2.10988281 63.91394531 -1.28617188 63.92554687 -0.4375 63.9375 C0.80193359 63.95103516 0.80193359 63.95103516 2.06640625 63.96484375 C3.02353516 63.98224609 3.02353516 63.98224609 4 64 C3.505 61.03 3.505 61.03 3 58 C5.64 58.99 8.28 59.98 11 61 C11.33 59.68 11.66 58.36 12 57 C13.485 57.99 13.485 57.99 15 59 C15.89196374 52.01295068 13.08518676 48.45873111 9 43 C8.58451904 42.51394287 8.16903809 42.02788574 7.7409668 41.52709961 C3.71151363 36.52768845 2.89783481 31.84692703 2.1875 25.5625 C2.00670898 24.17901367 2.00670898 24.17901367 1.82226562 22.76757812 C1.5302657 20.51333867 1.2566968 18.25848431 1 16 C0.18595703 17.71509766 0.18595703 17.71509766 -0.64453125 19.46484375 C-1.36665687 20.95598626 -2.08934222 22.44685779 -2.8125 23.9375 C-3.16892578 24.69224609 -3.52535156 25.44699219 -3.89257812 26.22460938 C-4.24384766 26.94326172 -4.59511719 27.66191406 -4.95703125 28.40234375 C-5.27647705 29.06741943 -5.59592285 29.73249512 -5.92504883 30.41772461 C-7 32 -7 32 -10 33 C-10.28875 32.195625 -10.5775 31.39125 -10.875 30.5625 C-11.73262568 27.8673532 -11.73262568 27.8673532 -14 27 C-18.81709441 26.40319184 -22.69570657 26.13047105 -26.8125 28.875 C-32.55153918 37.0736274 -35.11248886 45.20949508 -37 55 C-38.485 54.505 -38.485 54.505 -40 54 C-40.12549613 46.47023247 -40.12549613 46.47023247 -39.51367188 44.17773438 C-38.94245834 41.75604963 -38.78967552 39.5009693 -38.68359375 37.015625 C-38.64169922 36.08105469 -38.59980469 35.14648438 -38.55664062 34.18359375 C-38.51732422 33.21550781 -38.47800781 32.24742188 -38.4375 31.25 C-38.39431641 30.26644531 -38.35113281 29.28289063 -38.30664062 28.26953125 C-38.20077948 25.84648725 -38.09869829 23.4233446 -38 21 C-38.99 21 -39.98 21 -41 21 C-41.33 18.36 -41.66 15.72 -42 13 C-45.00934678 12.41958092 -47.92934564 11.93979109 -51 12 C-52.93211944 13.82437884 -52.93211944 13.82437884 -54 16 C-54.99 16 -55.98 16 -57 16 C-57 13.2087285 -56.50698371 11.51782829 -54.5390625 9.5078125 C-38.93270954 -2.78617167 -18.77013316 -5.88534498 0 0 Z " fill="#BE51CD" transform="translate(68,27)"/>
<path d="M0 0 C0.99 0.495 0.99 0.495 2 1 C2.625 3.0625 2.625 3.0625 3 5 C3.66 4.67 4.32 4.34 5 4 C5.99 4.33 6.98 4.66 8 5 C8.04125 6.19625 8.0825 7.3925 8.125 8.625 C8.59557623 13.21492814 10.13705914 16.82292595 12.0625 21 C14.52965183 26.54068797 16.36698001 30.9606375 15 37 C14.36186897 38.49169945 13.69251801 39.97025861 13 41.4375 C9.66732648 48.81866776 10.68966366 57.08642323 11 65 C11.94101563 64.81566406 12.88203125 64.63132812 13.8515625 64.44140625 C17.17507959 63.9754541 18.26000614 64.20846555 21 66 C21 67.32 21 68.64 21 70 C20.21625 69.979375 19.4325 69.95875 18.625 69.9375 C16.01885039 69.81315937 16.01885039 69.81315937 14 71 C8.91891892 70.74594595 8.91891892 70.74594595 6 69 C2.52358651 64.01178484 0 59.12514474 0 53 C-2.53744315 53.54708727 -2.53744315 53.54708727 -5 55 C-6.07575878 57.95361173 -6.07575878 57.95361173 -6 61 C-5.34 61.66 -4.68 62.32 -4 63 C-4 63.99 -4 64.98 -4 66 C-4.99 66 -5.98 66 -7 66 C-6.505 66.598125 -6.01 67.19625 -5.5 67.8125 C-4 70 -4 70 -4 73 C-8.62921525 74.0161692 -12.34462607 73.83796731 -17 73 C-17.33 73.66 -17.66 74.32 -18 75 C-18.99 74.67 -19.98 74.34 -21 74 C-21.495 70.04 -21.495 70.04 -22 66 C-24.64 66 -27.28 66 -30 66 C-30.495 67.98 -30.495 67.98 -31 70 C-32.74965358 70.05429959 -34.49979787 70.09292823 -36.25 70.125 C-37.22453125 70.14820312 -38.1990625 70.17140625 -39.203125 70.1953125 C-42.0196498 69.99862781 -43.60949036 69.44568916 -46 68 C-46 67.34 -46 66.68 -46 66 C-46.58007812 65.90203125 -47.16015625 65.8040625 -47.7578125 65.703125 C-56.01937202 64.12170437 -61.06445686 60.76874488 -66 54 C-66.63671875 51.8125 -66.63671875 51.8125 -67 50 C-66.50371094 50.40992188 -66.00742188 50.81984375 -65.49609375 51.2421875 C-58.69653843 56.63538318 -52.498192 58.10545347 -44 59 C-44 60.32 -44 61.64 -44 63 C-37.37459876 62.88091097 -37.37459876 62.88091097 -31.5 60.25 C-29.87823196 58.03660708 -29.87823196 58.03660708 -29.125 55.3125 C-28.75375 54.549375 -28.3825 53.78625 -28 53 C-24.875 52.1875 -24.875 52.1875 -22 52 C-22.08894531 50.96488281 -22.17789063 49.92976563 -22.26953125 48.86328125 C-21.94364082 44.19218506 -20.73707456 42.66508502 -17.6875 39.1875 C-16.48673828 37.78564453 -16.48673828 37.78564453 -15.26171875 36.35546875 C-12.4697127 33.44773188 -10.96128703 32.05767722 -6.875 31.8125 C-4 32 -4 32 -3 33 C-2.625 35.8125 -2.625 35.8125 -3 39 C-5.2371647 41.2371647 -7.12948333 42.67193215 -10.09375 43.7890625 C-12.23132291 44.86990664 -12.23132291 44.86990664 -12.828125 47.3828125 C-12.96734375 48.28773437 -13.1065625 49.19265625 -13.25 50.125 C-13.39953125 51.03507812 -13.5490625 51.94515625 -13.703125 52.8828125 C-13.80109375 53.58148438 -13.8990625 54.28015625 -14 55 C-13.34 55 -12.68 55 -12 55 C-12 53.35 -12 51.7 -12 50 C-10.7315625 49.7525 -10.7315625 49.7525 -9.4375 49.5 C-4.04451313 47.14669664 -0.39948288 42.85920839 2.1796875 37.58984375 C4.72117749 29.56599678 2.99860498 22.28923717 -0.10546875 14.75390625 C-1.57162096 10.24020622 -1.52802375 5.69162084 -1 1 C-0.67 0.67 -0.34 0.34 0 0 Z " fill="#C15CD0" transform="translate(102,54)"/>
<path d="M0 0 C0.33 -0.99 0.66 -1.98 1 -3 C3.66666667 -1.66666667 6.33333333 -0.33333333 9 1 C8.125 6.75 8.125 6.75 7 9 C7.08780403 11.04498425 7.24241538 13.08744948 7.4375 15.125 C7.59025391 16.76855469 7.59025391 16.76855469 7.74609375 18.4453125 C7.82988281 19.28835937 7.91367188 20.13140625 8 21 C7.01 21.33 6.02 21.66 5 22 C5.495 23.485 5.495 23.485 6 25 C6.36890303 26.55908654 6.72215879 28.12193041 7.0625 29.6875 C7.32740234 30.89986328 7.32740234 30.89986328 7.59765625 32.13671875 C7.73042969 32.75160156 7.86320312 33.36648437 8 34 C7.01 34.495 7.01 34.495 6 35 C5.67 35.99 5.34 36.98 5 38 C3.4597225 33.02322102 2.49363261 28.22960352 1.875 23.0625 C1.78863281 22.37865234 1.70226562 21.69480469 1.61328125 20.99023438 C1.40397715 19.32742954 1.20128278 17.66379487 1 16 C0.18595703 17.71509766 0.18595703 17.71509766 -0.64453125 19.46484375 C-1.36665687 20.95598626 -2.08934222 22.44685779 -2.8125 23.9375 C-3.16892578 24.69224609 -3.52535156 25.44699219 -3.89257812 26.22460938 C-4.24384766 26.94326172 -4.59511719 27.66191406 -4.95703125 28.40234375 C-5.27647705 29.06741943 -5.59592285 29.73249512 -5.92504883 30.41772461 C-7 32 -7 32 -10 33 C-10.28875 32.195625 -10.5775 31.39125 -10.875 30.5625 C-11.73262568 27.8673532 -11.73262568 27.8673532 -14 27 C-18.81709441 26.40319184 -22.69570657 26.13047105 -26.8125 28.875 C-32.55153918 37.0736274 -35.11248886 45.20949508 -37 55 C-38.485 54.505 -38.485 54.505 -40 54 C-40.12549613 46.47023247 -40.12549613 46.47023247 -39.51367188 44.17773438 C-38.94245834 41.75604963 -38.78967552 39.5009693 -38.68359375 37.015625 C-38.64169922 36.08105469 -38.59980469 35.14648438 -38.55664062 34.18359375 C-38.51732422 33.21550781 -38.47800781 32.24742188 -38.4375 31.25 C-38.39431641 30.26644531 -38.35113281 29.28289063 -38.30664062 28.26953125 C-38.20077948 25.84648725 -38.09869829 23.4233446 -38 21 C-38.99 21 -39.98 21 -41 21 C-41.33 18.36 -41.66 15.72 -42 13 C-45.00934678 12.41958092 -47.92934564 11.93979109 -51 12 C-52.93211944 13.82437884 -52.93211944 13.82437884 -54 16 C-54.99 16 -55.98 16 -57 16 C-57 13.2087285 -56.50698371 11.51782829 -54.5390625 9.5078125 C-38.93270954 -2.78617167 -18.77013316 -5.88534498 0 0 Z " fill="#B54AC7" transform="translate(68,27)"/>
<path d="M0 0 C7.67980285 0.56887429 14.78634629 2.41510462 20.875 7.3125 C22.8539464 9.28968963 22.8539464 9.28968963 25.3125 8.75 C25.869375 8.5025 26.42625 8.255 27 8 C27.3403125 9.175625 27.3403125 9.175625 27.6875 10.375 C28.74401615 13.23869774 28.74401615 13.23869774 31.5625 13.9375 C32.366875 14.288125 33.17125 14.63875 34 15 C35.47368421 20.05263158 35.47368421 20.05263158 34 23 C36.97 23 39.94 23 43 23 C43.09765625 29.93359375 43.09765625 29.93359375 43 32 C42 33 42 33 38.125 33.0625 C36.74995685 33.04474114 35.37494706 33.02407495 34 33 C33.01 33 32.02 33 31 33 C31.66 33.78375 32.32 34.5675 33 35.375 C35 38 35 38 35 40 C29.85445057 40.38479761 27.75869147 38.78187039 23.875 35.6484375 C21.51693486 33.57530523 19.60219068 31.71675811 18 29 C18 26.3125 18 26.3125 19 24 C21.0625 22.6875 21.0625 22.6875 23 22 C22.01 22 21.02 22 20 22 C20 20.68 20 19.36 20 18 C19.38125 18.495 18.7625 18.99 18.125 19.5 C16 21 16 21 14 21 C13.67 20.01 13.34 19.02 13 18 C10.89415562 17.19436362 10.89415562 17.19436362 8.4375 16.8125 C7.19806641 16.57466797 7.19806641 16.57466797 5.93359375 16.33203125 C4.97646484 16.16767578 4.97646484 16.16767578 4 16 C-1.33167661 21.10800695 -1.33167661 21.10800695 -3.625 27.9375 C-3.28107946 31.81998081 -1.94169105 35.31048765 -0.609375 38.94921875 C0.18235614 41.61369856 0.04423368 43.42957863 -1 46 C-1.99 46.495 -1.99 46.495 -3 47 C-3 45.68 -3 44.36 -3 43 C-3.66 43 -4.32 43 -5 43 C-5 41.02 -5 39.04 -5 37 C-6.485 37.495 -6.485 37.495 -8 38 C-7.67 35.69 -7.34 33.38 -7 31 C-7.66 30.67 -8.32 30.34 -9 30 C-8.40072174 26.64404172 -7.15377564 24.62198774 -5 22 C-5.66 21.34 -6.32 20.68 -7 20 C-7 19.01 -7 18.02 -7 17 C-5.02 16.34 -3.04 15.68 -1 15 C-1 14.01 -1 13.02 -1 12 C-0.01 11.67 0.98 11.34 2 11 C-1.465 9.02 -1.465 9.02 -5 7 C-5 6.34 -5 5.68 -5 5 C1.45512034 4.43868519 6.15439723 6.36536213 12 9 C9.35971892 6.92464393 6.77217731 5.27321903 3.75 3.8125 C3.04359375 3.46832031 2.3371875 3.12414063 1.609375 2.76953125 C1.07828125 2.51558594 0.5471875 2.26164062 0 2 C0 1.34 0 0.68 0 0 Z " fill="#BF52CE" transform="translate(99,30)"/>
<path d="M0 0 C0.66 0.33 1.32 0.66 2 1 C2.625 3.0625 2.625 3.0625 3 5 C3.66 4.67 4.32 4.34 5 4 C5.99 4.33 6.98 4.66 8 5 C8.04125 6.19625 8.0825 7.3925 8.125 8.625 C8.59557623 13.21492814 10.13705914 16.82292595 12.0625 21 C14.52965183 26.54068797 16.36698001 30.9606375 15 37 C14.36186897 38.49169945 13.69251801 39.97025861 13 41.4375 C9.66732648 48.81866776 10.68966366 57.08642323 11 65 C11.94101563 64.81566406 12.88203125 64.63132812 13.8515625 64.44140625 C17.17507959 63.9754541 18.26000614 64.20846555 21 66 C21 67.32 21 68.64 21 70 C20.21625 69.979375 19.4325 69.95875 18.625 69.9375 C16.01885039 69.81315937 16.01885039 69.81315937 14 71 C8.91891892 70.74594595 8.91891892 70.74594595 6 69 C2.52358651 64.01178484 0 59.12514474 0 53 C-0.7425 53.309375 -1.485 53.61875 -2.25 53.9375 C-4.52032931 54.81467269 -6.63542191 55.46606301 -9 56 C-9.7425 56.185625 -10.485 56.37125 -11.25 56.5625 C-11.8275 56.706875 -12.405 56.85125 -13 57 C-12.67 54.69 -12.34 52.38 -12 50 C-10.7315625 49.7525 -10.7315625 49.7525 -9.4375 49.5 C-4.04451313 47.14669664 -0.39948288 42.85920839 2.1796875 37.58984375 C4.72117749 29.56599678 2.99860498 22.28923717 -0.10546875 14.75390625 C-1.57162096 10.24020622 -1.52802375 5.69162084 -1 1 C-0.67 0.67 -0.34 0.34 0 0 Z " fill="#A6A6C4" transform="translate(102,54)"/>
<path d="M0 0 C5.8908173 -0.068643 11.58038165 -0.02170558 17.375 1.08203125 C16.385 1.41203125 15.395 1.74203125 14.375 2.08203125 C14.375 3.07203125 14.375 4.06203125 14.375 5.08203125 C15.365 5.41203125 16.355 5.74203125 17.375 6.08203125 C16.62476563 6.41074219 15.87453125 6.73945312 15.1015625 7.078125 C1.47305638 13.41177583 -8.80703342 22.92388165 -14.0625 37.20703125 C-14.59875276 38.82700821 -15.12556241 40.45032832 -15.625 42.08203125 C-15.955 42.08203125 -16.285 42.08203125 -16.625 42.08203125 C-16.625 35.48203125 -16.625 28.88203125 -16.625 22.08203125 C-17.615 22.08203125 -18.605 22.08203125 -19.625 22.08203125 C-19.955 19.44203125 -20.285 16.80203125 -20.625 14.08203125 C-23.63434678 13.50161217 -26.55434564 13.02182234 -29.625 13.08203125 C-31.55711944 14.90641009 -31.55711944 14.90641009 -32.625 17.08203125 C-33.615 17.08203125 -34.605 17.08203125 -35.625 17.08203125 C-35.625 14.29075975 -35.13198371 12.59985954 -33.1640625 10.58984375 C-22.76278469 2.39618409 -12.94643753 0.29296895 0 0 Z " fill="#C15AD0" transform="translate(46.625,25.91796875)"/>
<path d="M0 0 C1.5778125 0.433125 1.5778125 0.433125 3.1875 0.875 C3.1875 1.865 3.1875 2.855 3.1875 3.875 C2.548125 4.16375 1.90875 4.4525 1.25 4.75 C-0.96456079 5.70323451 -0.96456079 5.70323451 -1.8125 7.875 C-1.852492 9.87460012 -1.85596799 11.87547242 -1.8125 13.875 C5.0114755 14.39768749 9.94680039 13.57039206 16.15625 10.65234375 C16.8265625 10.39582031 17.496875 10.13929687 18.1875 9.875 C18.8475 10.205 19.5075 10.535 20.1875 10.875 C20.17589844 11.72964844 20.16429688 12.58429688 20.15234375 13.46484375 C20.14332031 14.56957031 20.13429688 15.67429687 20.125 16.8125 C20.11339844 17.91464844 20.10179688 19.01679687 20.08984375 20.15234375 C19.87487429 22.78947634 19.87487429 22.78947634 21.1875 23.875 C21.5175 24.535 21.8475 25.195 22.1875 25.875 C23.1775 26.205 24.1675 26.535 25.1875 26.875 C24.1875 27.875 24.1875 27.875 21.90234375 27.97265625 C20.52755859 27.95525391 20.52755859 27.95525391 19.125 27.9375 C18.20589844 27.92847656 17.28679688 27.91945313 16.33984375 27.91015625 C15.62957031 27.89855469 14.91929688 27.88695313 14.1875 27.875 C13.8575 28.535 13.5275 29.195 13.1875 29.875 C13.1875 28.225 13.1875 26.575 13.1875 24.875 C12.28128906 24.75125 11.37507813 24.6275 10.44140625 24.5 C2.82130569 23.20982424 -2.83087605 21.65756062 -8.34765625 16.05859375 C-9.93683881 13.68965227 -10.35533237 12.57066655 -10.1875 9.75 C-8.68331212 4.16459649 -6.27039823 -0.20558683 0 0 Z " fill="#BE50CB" transform="translate(43.8125,89.125)"/>
<path d="M0 0 C2.97 0.99 5.94 1.98 9 3 C9 3.99 9 4.98 9 6 C9.61875 5.505 10.2375 5.01 10.875 4.5 C13 3 13 3 15 3 C15 4.32 15 5.64 15 7 C16.65 6.67 18.3 6.34 20 6 C18.1875 8.5 18.1875 8.5 16 11 C15.01 11 14.02 11 13 11 C16.15643124 17.07905276 19.26659339 20.17772893 25 24 C26.65549531 24.38499891 28.3222433 24.72793135 30 25 C28.3125 27.0625 28.3125 27.0625 26 29 C22.55163333 28.88505444 21.1923539 28.17227127 18.60546875 25.85546875 C17.80753906 24.97503906 17.00960937 24.09460938 16.1875 23.1875 C12.0057501 18.82474899 8.62752552 16.17202739 3 14 C2.01 14 1.02 14 0 14 C-0.33 12.35 -0.66 10.7 -1 9 C-1.99 8.67 -2.98 8.34 -4 8 C-3 5 -3 5 -0.9375 3.8125 C-0.298125 3.544375 0.34125 3.27625 1 3 C0.67 2.01 0.34 1.02 0 0 Z " fill="#C056CE" transform="translate(104,45)"/>
<path d="M0 0 C0.49628906 0.40992187 0.99257813 0.81984375 1.50390625 1.2421875 C8.30346157 6.63538318 14.501808 8.10545347 23 9 C23 10.32 23 11.64 23 13 C24.60495567 12.88557539 26.20898119 12.75805306 27.8125 12.625 C28.70582031 12.55539063 29.59914063 12.48578125 30.51953125 12.4140625 C33.24398499 12.13354964 33.24398499 12.13354964 36 10 C38.48046875 9.8046875 38.48046875 9.8046875 41.1875 9.875 C42.08855469 9.89304687 42.98960938 9.91109375 43.91796875 9.9296875 C44.60503906 9.95289062 45.29210937 9.97609375 46 10 C46.042721 11.66611905 46.04063832 13.33382885 46 15 C45 16 45 16 43.15234375 16.09765625 C41.1015625 16.06510417 39.05078125 16.03255208 37 16 C36.67 17.32 36.34 18.64 36 20 C34.25034642 20.05429959 32.50020213 20.09292823 30.75 20.125 C29.77546875 20.14820312 28.8009375 20.17140625 27.796875 20.1953125 C24.9803502 19.99862781 23.39050964 19.44568916 21 18 C21 17.34 21 16.68 21 16 C20.41992188 15.90203125 19.83984375 15.8040625 19.2421875 15.703125 C10.98062798 14.12170437 5.93554314 10.76874488 1 4 C0.36328125 1.8125 0.36328125 1.8125 0 0 Z " fill="#C777D5" transform="translate(35,104)"/>
<path d="M0 0 C-2.07149388 5.25840753 -4.32559524 10.43538097 -6.5625 15.625 C-7.74603633 18.40373746 -8.893071 21.1901033 -10 24 C-10.69480469 23.50886719 -11.38960937 23.01773438 -12.10546875 22.51171875 C-15.47539763 20.75171541 -17.54310384 20.68823419 -21.3125 20.8125 C-22.38113281 20.83957031 -23.44976562 20.86664063 -24.55078125 20.89453125 C-25.35902344 20.92933594 -26.16726562 20.96414062 -27 21 C-22.11971504 11.23943007 -11.91321352 0 0 0 Z " fill="#E2E5EF" transform="translate(69,33)"/>
<path d="M0 0 C6.37596465 -0.55443171 11.32894525 1.08063964 17 4 C19.625 6.25 19.625 6.25 21 8 C20.67 8.99 20.34 9.98 20 11 C17.23723823 10.47731534 14.6739124 9.89130413 12 9 C9.92655637 10.32410943 9.92655637 10.32410943 7.9375 12.25 C7.24527344 12.87390625 6.55304688 13.4978125 5.83984375 14.140625 C3.00750488 17.00303116 2.03808147 18.55825493 1.6875 22.625 C1.76344938 26.74905139 2.98478798 30.10969217 4.390625 33.94921875 C5.18235614 36.61369856 5.04423368 38.42957863 4 41 C3.01 41.495 3.01 41.495 2 42 C2 40.68 2 39.36 2 38 C1.34 38 0.68 38 0 38 C0 36.02 0 34.04 0 32 C-1.485 32.495 -1.485 32.495 -3 33 C-2.67 30.69 -2.34 28.38 -2 26 C-2.66 25.67 -3.32 25.34 -4 25 C-3.40072174 21.64404172 -2.15377564 19.62198774 0 17 C-0.66 16.34 -1.32 15.68 -2 15 C-2 14.01 -2 13.02 -2 12 C-0.02 11.34 1.96 10.68 4 10 C4 9.01 4 8.02 4 7 C4.99 6.67 5.98 6.34 7 6 C3.535 4.02 3.535 4.02 0 2 C0 1.34 0 0.68 0 0 Z " fill="#F6975D" transform="translate(94,35)"/>
<path d="M0 0 C-0.78503906 0.42410156 -1.57007812 0.84820312 -2.37890625 1.28515625 C-16.52540758 9.18289626 -25.21270933 19.35953482 -30 35 C-30.33 35 -30.66 35 -31 35 C-33.41644192 16.28954803 -33.41644192 16.28954803 -30.23828125 11.15234375 C-27.88136037 9.37978342 -25.69864084 8.17589679 -23 7 C-21.83017578 6.26910156 -21.83017578 6.26910156 -20.63671875 5.5234375 C-17.50044615 3.71136889 -14.34063627 2.4875041 -10.9375 1.25 C-9.72964844 0.80140625 -8.52179687 0.3528125 -7.27734375 -0.109375 C-4.19451839 -0.94713922 -2.89342922 -1.18334761 0 0 Z " fill="#E1E4EF" transform="translate(61,33)"/>
<path d="M0 0 C0.92188461 2.76565382 1.11785222 4.38283702 1.09765625 7.23046875 C1.09443359 8.03291016 1.09121094 8.83535156 1.08789062 9.66210938 C1.07532227 10.91217773 1.07532227 10.91217773 1.0625 12.1875 C1.05798828 13.03248047 1.05347656 13.87746094 1.04882812 14.74804688 C1.03705403 16.83206155 1.0191189 18.91603977 1 21 C1.94101563 20.81566406 2.88203125 20.63132812 3.8515625 20.44140625 C7.17507959 19.9754541 8.26000614 20.20846555 11 22 C11 23.32 11 24.64 11 26 C10.21625 25.979375 9.4325 25.95875 8.625 25.9375 C6.01885039 25.81315937 6.01885039 25.81315937 4 27 C0.50136272 26.82506814 -1.07379184 26.74488709 -4 25 C-7.15067712 20.5387471 -9.54779532 15.76618898 -10.43359375 10.34765625 C-9.81768726 7.01288329 -8.28898471 6.1725758 -5.5625 4.25 C-4.73878906 3.65703125 -3.91507812 3.0640625 -3.06640625 2.453125 C-2.38449219 1.97359375 -1.70257813 1.4940625 -1 1 C-0.67 0.67 -0.34 0.34 0 0 Z " fill="#BE4FCE" transform="translate(112,98)"/>
<path d="M0 0 C0.73605469 0.00451172 1.47210938 0.00902344 2.23046875 0.01367188 C4.02868158 0.02534858 5.82685197 0.04327989 7.625 0.0625 C7.625 0.7225 7.625 1.3825 7.625 2.0625 C6.74199219 2.19785156 5.85898437 2.33320313 4.94921875 2.47265625 C-5.80814136 4.40227938 -13.79040168 8.11090499 -21.375 16.0625 C-22.365 15.7325 -23.355 15.4025 -24.375 15.0625 C-24.705 13.7425 -25.035 12.4225 -25.375 11.0625 C-28.015 10.4025 -30.655 9.7425 -33.375 9.0625 C-30.64623902 5.45927121 -26.70696335 4.65491262 -22.5625 3.4375 C-21.86318359 3.2209375 -21.16386719 3.004375 -20.44335938 2.78125 C-13.55740003 0.69420526 -7.17382223 -0.0843216 0 0 Z " fill="#E2E5F0" transform="translate(51.375,28.9375)"/>
<path d="M0 0 C0.99 0.66 1.98 1.32 3 2 C3 2.99 3 3.98 3 5 C-0.28724401 6.75839881 -3.58057016 8.50510657 -6.875 10.25 C-8.25171875 10.98669922 -8.25171875 10.98669922 -9.65625 11.73828125 C-26.53846629 20.65494478 -26.53846629 20.65494478 -33.625 20.25 C-34.46289062 20.21390625 -35.30078125 20.1778125 -36.1640625 20.140625 C-36.76992188 20.09421875 -37.37578125 20.0478125 -38 20 C-38 19.01 -38 18.02 -38 17 C-37.34 17.33 -36.68 17.66 -36 18 C-36 17.34 -36 16.68 -36 16 C-35.21625 16.185625 -34.4325 16.37125 -33.625 16.5625 C-31.02910225 17.25962266 -31.02910225 17.25962266 -29 16 C-28.01 16.33 -27.02 16.66 -26 17 C-26 16.34 -26 15.68 -26 15 C-25.01 14.67 -24.02 14.34 -23 14 C-22.67 13.01 -22.34 12.02 -22 11 C-19.525 11.495 -19.525 11.495 -17 12 C-17.185625 11.360625 -17.37125 10.72125 -17.5625 10.0625 C-17.706875 9.381875 -17.85125 8.70125 -18 8 C-17 7 -17 7 -14.93359375 6.90234375 C-13.69802734 6.91974609 -13.69802734 6.91974609 -12.4375 6.9375 C-11.61121094 6.94652344 -10.78492187 6.95554687 -9.93359375 6.96484375 C-9.29550781 6.97644531 -8.65742187 6.98804687 -8 7 C-8.33 5.02 -8.66 3.04 -9 1 C-6.36 1.99 -3.72 2.98 -1 4 C-0.67 2.68 -0.34 1.36 0 0 Z " fill="#ED7A58" transform="translate(80,84)"/>
<path d="M0 0 C1.32 0.33 2.64 0.66 4 1 C4.061875 2.794375 4.061875 2.794375 4.125 4.625 C4.59557623 9.21492814 6.13705914 12.82292595 8.0625 17 C10.68213283 22.81721823 11.81637932 26.67306028 11 33 C10.377101 34.35433344 9.71951553 35.69442747 9 37 C7.02 37 5.04 37 3 37 C3.09539062 36.05898437 3.19078125 35.11796875 3.2890625 34.1484375 C3.39992188 32.90320313 3.51078125 31.65796875 3.625 30.375 C3.74101563 29.14523438 3.85703125 27.91546875 3.9765625 26.6484375 C4.00034163 22.94681886 3.37441976 20.40982003 2 17 C2.99 17 3.98 17 5 17 C5 16.34 5 15.68 5 15 C3.68 15 2.36 15 1 15 C1.020625 14.195625 1.04125 13.39125 1.0625 12.5625 C1.29633621 10.06645115 1.29633621 10.06645115 0 9 C-0.07179964 7.48071962 -0.08392007 5.95832518 -0.0625 4.4375 C-0.05347656 3.61121094 -0.04445313 2.78492188 -0.03515625 1.93359375 C-0.02355469 1.29550781 -0.01195313 0.65742187 0 0 Z " fill="#DEE2EC" transform="translate(106,58)"/>
<path d="M0 0 C2.359375 0.12890625 2.359375 0.12890625 5 1 C6.265625 3.58984375 6.265625 3.58984375 7.25 6.9375 C10.06842053 15.08758229 14.80339911 21.20226608 22 26 C21.67 26.99 21.34 27.98 21 29 C19.68677212 28.02180976 18.37443848 27.0424189 17.0625 26.0625 C16.33160156 25.51722656 15.60070312 24.97195312 14.84765625 24.41015625 C13 23 13 23 12 22 C11.67 22.66 11.34 23.32 11 24 C9.02 21.03 7.04 18.06 5 15 C5 16.32 5 17.64 5 19 C4.01 18.67 3.02 18.34 2 18 C1.67 15.03 1.34 12.06 1 9 C1.33 10.32 1.66 11.64 2 13 C2.66 13 3.32 13 4 13 C3.34 11.02 2.68 9.04 2 7 C1.01 7.495 1.01 7.495 0 8 C0 5.36 0 2.72 0 0 Z " fill="#C255D1" transform="translate(72,48)"/>
<path d="M0 0 C0.66 0.33 1.32 0.66 2 1 C2.144375 1.61875 2.28875 2.2375 2.4375 2.875 C3.09717457 5.36710392 4.08288629 6.3329446 6 8 C5.34 8 4.68 8 4 8 C4 9.65 4 11.3 4 13 C4.66 13.33 5.32 13.66 6 14 C5.67 15.65 5.34 17.3 5 19 C6.32 19 7.64 19 9 19 C9 19.66 9 20.32 9 21 C8.34 21.33 7.68 21.66 7 22 C7 23.32 7 24.64 7 26 C8.32 26.33 9.64 26.66 11 27 C10.01 27 9.02 27 8 27 C8 28.65 8 30.3 8 32 C7.01 32 6.02 32 5 32 C4.60167969 30.46279297 4.60167969 30.46279297 4.1953125 28.89453125 C3.83870972 27.53381011 3.48192949 26.17313547 3.125 24.8125 C2.95097656 24.13896484 2.77695313 23.46542969 2.59765625 22.77148438 C1.83755502 19.8859149 1.0506673 17.11881216 -0.12109375 14.37109375 C-1.17029185 11.54059042 -1.23224 9.25978177 -1.1875 6.25 C-1.17783203 4.80367187 -1.17783203 4.80367187 -1.16796875 3.328125 C-1 1 -1 1 0 0 Z " fill="#A4ACC2" transform="translate(102,54)"/>
<path d="M0 0 C2.75 0.5625 2.75 0.5625 3.75 1.5625 C4.125 4.375 4.125 4.375 3.75 7.5625 C1.5625 9.75 1.5625 9.75 -1.25 11.5625 C-2.11625 12.160625 -2.9825 12.75875 -3.875 13.375 C-4.65875 13.766875 -5.4425 14.15875 -6.25 14.5625 C-7.24 14.2325 -8.23 13.9025 -9.25 13.5625 C-8.70619724 7.76193723 -6.08456771 1.05309826 0 0 Z " fill="#DFA6E6" transform="translate(95.25,85.4375)"/>
<path d="M0 0 C8.31420266 0.61586686 17.02026347 2.82093892 23 9 C23 9.99 23 10.98 23 12 C21 12.875 21 12.875 18 13 C15.9417113 11.72212675 14.14400821 10.23711379 12.26953125 8.703125 C8.49705554 5.87214495 4.26572003 3.97551788 0 2 C0 1.34 0 0.68 0 0 Z " fill="#DED4AA" transform="translate(99,30)"/>
<path d="M0 0 C0.66 0.33 1.32 0.66 2 1 C1.67 1.66 1.34 2.32 1 3 C5.455 2.505 5.455 2.505 10 2 C5.44613011 4.27693495 0.81143247 5.60902798 -4.06835938 6.96875 C-9.82695633 8.67420139 -13.58335446 10.87503169 -17 16 C-17.99 16 -18.98 16 -20 16 C-20 13.2087285 -19.50698371 11.51782829 -17.5390625 9.5078125 C-12.28871062 5.37182102 -6.33639168 2.14413254 0 0 Z " fill="#B748C8" transform="translate(31,27)"/>
<path d="M0 0 C7.26473709 0.82553831 10.13079517 3.97124708 14.73046875 9.28125 C16 11 16 11 17 14 C11.85368523 14.38485484 9.76367874 12.7762047 5.87109375 9.65625 C3.56685119 7.61658644 1.67670819 5.58492513 0 3 C0 2.01 0 1.02 0 0 Z " fill="#F05C7E" transform="translate(117,56)"/>
<path d="M0 0 C6.37596465 -0.55443171 11.32894525 1.08063964 17 4 C19.625 6.25 19.625 6.25 21 8 C20.67 8.99 20.34 9.98 20 11 C15.13127946 10.40440894 11.40671159 8.27522585 7.1875 5.9375 C6.49462891 5.56044922 5.80175781 5.18339844 5.08789062 4.79492188 C3.38871015 3.86916148 1.69390575 2.93537688 0 2 C0 1.34 0 0.68 0 0 Z " fill="#E7E0BC" transform="translate(94,35)"/>
<path d="M0 0 C2.97 0 5.94 0 9 0 C9.09765625 6.93359375 9.09765625 6.93359375 9 9 C8 10 8 10 4.375 10.1875 C0.26454534 10.15040203 -3.11255942 9.29581353 -7 8 C-7 7.67 -7 7.34 -7 7 C-4.36 7.33 -1.72 7.66 1 8 C0.649375 7.4225 0.29875 6.845 -0.0625 6.25 C-1 4 -1 4 0 0 Z " fill="#AE3EBF" transform="translate(133,53)"/>
<path d="M0 0 C1.5 1.375 1.5 1.375 3 3 C3 3.66 3 4.32 3 5 C3.66 5.33 4.32 5.66 5 6 C1.06155682 9.69974966 -1.69592735 10.42137389 -7 11 C-9.33588323 11.95584438 -9.33588323 11.95584438 -11 13 C-10.67 10.69 -10.34 8.38 -10 6 C-8.63875 5.62875 -8.63875 5.62875 -7.25 5.25 C-3.89648511 3.96018658 -2.32291764 2.68028958 0 0 Z " fill="#BCA8D2" transform="translate(100,98)"/>
<path d="M0 0 C2.4375 0.25 2.4375 0.25 5 1 C7 4 7 4 6.9375 7.4375 C6 11 6 11 3.625 13.5 C2.75875 13.995 1.8925 14.49 1 15 C0.01 14.67 -0.98 14.34 -2 14 C-1.67 13.67 -1.34 13.34 -1 13 C-0.95350094 11.00054061 -0.96227087 8.9996441 -1 7 C-1.03772913 5.0003559 -1.04649906 2.99945939 -1 1 C-0.67 0.67 -0.34 0.34 0 0 Z " fill="#DDA1E5" transform="translate(64,99)"/>
<path d="M0 0 C5.30002562 1.87059728 9.516197 4.94014072 14.0625 8.1875 C16.85664086 9.91154436 18.77530528 10.62062415 22 11 C20.3125 13.0625 20.3125 13.0625 18 15 C14.51265948 14.88882639 13.12895483 14.11087333 10.46484375 11.8203125 C9.63082031 10.93085937 8.79679687 10.04140625 7.9375 9.125 C5.09631726 6.1218392 2.39626159 3.36875519 -1 1 C-0.67 0.67 -0.34 0.34 0 0 Z " fill="#C152D1" transform="translate(112,59)"/>
<path d="M0 0 C-0.4375 2.3125 -0.4375 2.3125 -2 5 C-3.75 5.68359375 -3.75 5.68359375 -5.9375 6.25 C-11.62181193 7.80696713 -15.28581795 11.26810236 -19.6171875 15.13671875 C-22 17 -22 17 -25 17 C-10.40076336 0 -10.40076336 0 0 0 Z " fill="#C9C8E1" transform="translate(69,33)"/>
<path d="M0 0 C-3.35733938 2.23822626 -4.67790024 2.2909265 -8.62109375 2.4140625 C-10.27141602 2.47207031 -10.27141602 2.47207031 -11.95507812 2.53125 C-13.67887695 2.57765625 -13.67887695 2.57765625 -15.4375 2.625 C-17.15549805 2.68300781 -17.15549805 2.68300781 -18.90820312 2.7421875 C-23.27486754 2.88527305 -27.63073361 3 -32 3 C-31.67 2.01 -31.34 1.02 -31 0 C-20.77608414 -1.31921495 -10.17624235 -1.93833188 0 0 Z " fill="#CF74DB" transform="translate(64,27)"/>
<path d="M0 0 C0.33 0 0.66 0 1 0 C1 2.31 1 4.62 1 7 C1.66 7 2.32 7 3 7 C3.33 8.65 3.66 10.3 4 12 C3.01 12.33 2.02 12.66 1 13 C1.33 13.99 1.66 14.98 2 16 C2.36890303 17.55908654 2.72215879 19.12193041 3.0625 20.6875 C3.23910156 21.49574219 3.41570312 22.30398437 3.59765625 23.13671875 C3.73042969 23.75160156 3.86320312 24.36648437 4 25 C3.34 25.33 2.68 25.66 2 26 C1.67 26.99 1.34 27.98 1 29 C-1.491035 21.194757 -4.47323698 9.52897379 -0.98828125 1.73828125 C-0.66214844 1.16464844 -0.33601563 0.59101562 0 0 Z " fill="#C352D2" transform="translate(72,36)"/>
<path d="M0 0 C1.98 0.66 3.96 1.32 6 2 C4.52069424 6.48857844 1.02736426 8.13877979 -2.875 10.3125 C-3.50019531 10.68439453 -4.12539062 11.05628906 -4.76953125 11.43945312 C-9.39731559 14.06643007 -9.39731559 14.06643007 -12.4453125 13.73046875 C-13.21488281 13.36888672 -13.21488281 13.36888672 -14 13 C-13.67 12.01 -13.34 11.02 -13 10 C-11.35 10.33 -9.7 10.66 -8 11 C-8.185625 10.360625 -8.37125 9.72125 -8.5625 9.0625 C-8.706875 8.381875 -8.85125 7.70125 -9 7 C-8 6 -8 6 -5.93359375 5.90234375 C-4.69802734 5.91974609 -4.69802734 5.91974609 -3.4375 5.9375 C-2.61121094 5.94652344 -1.78492187 5.95554687 -0.93359375 5.96484375 C-0.29550781 5.97644531 0.34257813 5.98804687 1 6 C0.67 4.02 0.34 2.04 0 0 Z " fill="#FDB661" transform="translate(71,85)"/>
<path d="M0 0 C1.27522109 3.54950074 0.72829518 5.30646182 -0.8125 8.6875 C-2.84824359 13.42817625 -4.02067669 17.94016289 -5 23 C-5.99 22.67 -6.98 22.34 -8 22 C-8.33157682 15.81056603 -7.58190846 11.66033778 -5 6 C-4.34 5.67 -3.68 5.34 -3 5 C-1.9590934 3.35857037 -0.95495674 1.69287785 0 0 Z " fill="#C359D4" transform="translate(36,59)"/>
<path d="M0 0 C0.73605469 0.00451172 1.47210938 0.00902344 2.23046875 0.01367188 C4.02868158 0.02534858 5.82685197 0.04327989 7.625 0.0625 C7.625 0.7225 7.625 1.3825 7.625 2.0625 C6.2924398 2.23523929 4.95888058 2.40027128 3.625 2.5625 C2.8825 2.6553125 2.14 2.748125 1.375 2.84375 C-1.375 3.0625 -1.375 3.0625 -5.140625 2.96484375 C-9.6855495 2.93390412 -13.75845253 3.94998767 -18.125 5.125 C-26.3181584 7.32646604 -26.3181584 7.32646604 -30.375 6.0625 C-27.83486091 5.2449493 -25.29306769 4.43334814 -22.75 3.625 C-22.03714844 3.39490234 -21.32429688 3.16480469 -20.58984375 2.92773438 C-13.63678815 0.72699659 -7.27082155 -0.08546174 0 0 Z " fill="#C8C2E0" transform="translate(51.375,28.9375)"/>
<path d="M0 0 C0.90105469 0.01804687 1.80210938 0.03609375 2.73046875 0.0546875 C3.41753906 0.07789062 4.10460937 0.10109375 4.8125 0.125 C4.855221 1.79111905 4.85313832 3.45882885 4.8125 5.125 C3.2608498 6.6766502 1.77520239 6.2944916 -0.375 6.3125 C-4.32327146 6.28096429 -7.50413861 5.63612262 -11.1875 4.125 C-4.8125 -0.125 -4.8125 -0.125 0 0 Z " fill="#E1E5EF" transform="translate(76.1875,113.875)"/>
<path d="M0 0 C2.475 0.495 2.475 0.495 5 1 C4.87625 2.0725 4.7525 3.145 4.625 4.25 C4.56688632 9.66425782 7.12400566 13.72881579 9.6875 18.36328125 C11 21 11 21 11 24 C9.02 21.03 7.04 18.06 5 15 C5 16.32 5 17.64 5 19 C4.01 18.67 3.02 18.34 2 18 C1.67 15.03 1.34 12.06 1 9 C1.33 10.32 1.66 11.64 2 13 C2.66 13 3.32 13 4 13 C3.34 11.02 2.68 9.04 2 7 C1.01 7.495 1.01 7.495 0 8 C0 5.36 0 2.72 0 0 Z " fill="#D27CDD" transform="translate(72,48)"/>
<path d="M0 0 C0.66 0.33 1.32 0.66 2 1 C0.77143476 3.96769143 -0.48638401 6.92208179 -1.75 9.875 C-2.09804687 10.71675781 -2.44609375 11.55851562 -2.8046875 12.42578125 C-3.15273437 13.23144531 -3.50078125 14.03710938 -3.859375 14.8671875 C-4.17358398 15.61081543 -4.48779297 16.35444336 -4.81152344 17.12060547 C-6.24154815 19.38197159 -7.54688003 20.02504206 -10 21 C-9.19350845 17.38408184 -7.97347612 13.97173739 -6.6875 10.5 C-6.27886719 9.3759375 -5.87023438 8.251875 -5.44921875 7.09375 C-3.99883359 3.99750998 -2.55885409 2.22603938 0 0 Z " fill="#C357D3" transform="translate(68,39)"/>
<path d="M0 0 C2.475 0.99 2.475 0.99 5 2 C4.814375 2.78375 4.62875 3.5675 4.4375 4.375 C3.74037734 6.97089775 3.74037734 6.97089775 5 9 C1.62902617 10.49821059 -0.20442119 11 -4 11 C-4.49230769 4.6 -4.49230769 4.6 -2 1.5625 C-1.34 1.046875 -0.68 0.53125 0 0 Z " fill="#B147C1" transform="translate(92,108)"/>
<path d="M0 0 C2.02754039 1.82478635 3.37028096 3.56776414 4.875 5.875 C6.98764865 8.98183624 9.27529462 11.42666714 12 14 C11.34 14 10.68 14 10 14 C9.67 15.32 9.34 16.64 9 18 C8.773125 17.443125 8.54625 16.88625 8.3125 16.3125 C6.63832737 13.36276727 4.42167689 11.3626116 2 9 C0.125 7 0.125 7 -1 5 C-0.6875 2.25 -0.6875 2.25 0 0 Z " fill="#C252D0" transform="translate(76,62)"/>
<path d="M0 0 C2.20270733 1.06056279 4.14877676 2.10939468 6.125 3.5625 C10.27593728 5.63796864 14.41409243 5.74176443 19 6 C19 7.65 19 9.3 19 11 C10.59565536 9.58059957 5.14549494 7.12453145 0 0 Z " fill="#E2E7F0" transform="translate(37,109)"/>
<path d="M0 0 C0.49628906 0.40992187 0.99257813 0.81984375 1.50390625 1.2421875 C8.30346157 6.63538318 14.501808 8.10545347 23 9 C22.67 9.66 22.34 10.32 22 11 C13.9952265 11.95874664 9.38160507 10.70755705 2.8984375 5.921875 C0.89655134 3.8952742 0.35728671 2.78437232 0 0 Z " fill="#B3B7D1" transform="translate(35,104)"/>
<path d="M0 0 C0 3.58806025 -0.68289301 4.09752119 -2.9375 6.75 C-5.96252944 10.59356681 -6.79802165 13.1525196 -7 18 C-8.32 18 -9.64 18 -11 18 C-11.38112866 15.11554902 -11.57513479 12.90354983 -9.96875 10.37988281 C-8.53808036 8.72465494 -7.05078291 7.16816236 -5.5 5.625 C-4.71302734 4.80708984 -4.71302734 4.80708984 -3.91015625 3.97265625 C-2.61998005 2.63556455 -1.31171225 1.31597106 0 0 Z " fill="#9D2CB2" transform="translate(87,88)"/>
<path d="M0 0 C0.66 0.33 1.32 0.66 2 1 C2.144375 1.61875 2.28875 2.2375 2.4375 2.875 C3.09717457 5.36710392 4.08288629 6.3329446 6 8 C5.34 8 4.68 8 4 8 C4 9.65 4 11.3 4 13 C4.66 13.33 5.32 13.66 6 14 C1.25 13.125 1.25 13.125 -1 12 C-1.02687279 10.18757948 -1.04633715 8.37504767 -1.0625 6.5625 C-1.07410156 5.55316406 -1.08570312 4.54382812 -1.09765625 3.50390625 C-1 1 -1 1 0 0 Z " fill="#9EA5BE" transform="translate(102,54)"/>
<path d="M0 0 C0 2.64 0 5.28 0 8 C-2.64 8 -5.28 8 -8 8 C-7.34 5.69 -6.68 3.38 -6 1 C-3.92446352 0.4465236 -2.15634036 0 0 0 Z " fill="#AFB3CE" transform="translate(80,106)"/>
<path d="M0 0 C1.32 0.33 2.64 0.66 4 1 C1.94766315 3.2477975 0.99332739 4.0022242 -2 5 C-3.72795352 5.06802967 -5.45835365 5.08495645 -7.1875 5.0625 C-8.08855469 5.05347656 -8.98960938 5.04445313 -9.91796875 5.03515625 C-10.60503906 5.02355469 -11.29210938 5.01195313 -12 5 C-12 4.01 -12 3.02 -12 2 C-11.34 2.33 -10.68 2.66 -10 3 C-10 2.34 -10 1.68 -10 1 C-9.21625 1.185625 -8.4325 1.37125 -7.625 1.5625 C-5.02910225 2.25962266 -5.02910225 2.25962266 -3 1 C-2.01 1.33 -1.02 1.66 0 2 C0 1.34 0 0.68 0 0 Z " fill="#F89F5D" transform="translate(54,99)"/>
<path d="M0 0 C0.66 0 1.32 0 2 0 C2 0.66 2 1.32 2 2 C2.99 2.33 3.98 2.66 5 3 C4.01 3.103125 3.02 3.20625 2 3.3125 C-1.59988029 3.8163372 -4.74884677 4.91399054 -8.10546875 6.28125 C-10.04877456 7.01850416 -11.97634131 7.533347 -14 8 C-14 7.34 -14 6.68 -14 6 C-14.66 5.67 -15.32 5.34 -16 5 C-5.62642369 1.55580866 -5.62642369 1.55580866 0 2 C0 1.34 0 0.68 0 0 Z " fill="#C16BD2" transform="translate(59,29)"/>
<path d="M0 0 C2.66433008 1.33216504 2.74447159 2.47151628 3.6875 5.25 C4.81431247 8.82393045 5.46250494 11.39998785 4 15 C3.01 15.495 3.01 15.495 2 16 C2 14.68 2 13.36 2 12 C1.34 12 0.68 12 0 12 C0 8.04 0 4.08 0 0 Z " fill="#F4925D" transform="translate(94,61)"/>
<path d="M0 0 C3.29349209 1.24890832 5.76314447 2.8383619 8.5546875 4.96875 C8.2246875 5.95875 7.8946875 6.94875 7.5546875 7.96875 C5.09729251 6.53526959 2.76554061 5.14006815 0.5546875 3.34375 C-1.78231571 1.73706029 -3.67849687 1.46535793 -6.4453125 0.96875 C-7.4353125 0.30875 -8.4253125 -0.35125 -9.4453125 -1.03125 C-6.16986799 -2.66897225 -3.36461916 -1.05327209 0 0 Z " fill="#F2EBCD" transform="translate(112.4453125,33.03125)"/>
<path d="M0 0 C2.31 0 4.62 0 7 0 C7.66 1.65 8.32 3.3 9 5 C7.68 6.32 6.36 7.64 5 9 C4.34 8.34 3.68 7.68 3 7 C3 5.68 3 4.36 3 3 C2.01 2.67 1.02 2.34 0 2 C0 1.34 0 0.68 0 0 Z " fill="#C6C5C8" transform="translate(100,51)"/>
<path d="M0 0 C1.98 0 3.96 0 6 0 C5.67 2.31 5.34 4.62 5 7 C3.02 7 1.04 7 -1 7 C-0.67 4.69 -0.34 2.38 0 0 Z " fill="#E3E7F0" transform="translate(110,88)"/>
<path d="M0 0 C2.96052484 3.36423277 3.92289822 6.69159287 5 11 C3.02 11.33 1.04 11.66 -1 12 C-1.33 10.35 -1.66 8.7 -2 7 C-1.01 7 -0.02 7 1 7 C0.67 4.69 0.34 2.38 0 0 Z " fill="#D5DAEB" transform="translate(110,68)"/>
<path d="M0 0 C0.99 1.32 1.98 2.64 3 4 C1.88625 4.226875 0.7725 4.45375 -0.375 4.6875 C-4.07817064 5.60134173 -4.07817064 5.60134173 -5.375 8.25 C-6.03583788 11.15768666 -6.5878923 14.04656146 -7 17 C-7.33 17 -7.66 17 -8 17 C-8.65097561 12.52454269 -8.87277326 10.24217071 -6.21875 6.46484375 C-4.20943832 4.23266827 -2.16165112 2.0844493 0 0 Z " fill="#C355C5" transform="translate(103,45)"/>
<path d="M0 0 C0 1.32 0 2.64 0 4 C-2.66666667 4 -5.33333333 4 -8 4 C-8 3.01 -8 2.02 -8 1 C-8.66 0.67 -9.32 0.34 -10 0 C-6.30581799 -1.231394 -3.7943739 -0.64432764 0 0 Z " fill="#D391E1" transform="translate(123,120)"/>
<path d="M0 0 C1.4540625 0.0309375 1.4540625 0.0309375 2.9375 0.0625 C1.78576645 2.53050047 0.88966435 4.11033565 -1.0625 6.0625 C-3.6875 5.6875 -3.6875 5.6875 -6.0625 5.0625 C-3.64893617 0.07446809 -3.64893617 0.07446809 0 0 Z " fill="#E1E4EF" transform="translate(110.0625,95.9375)"/>
<path d="M0 0 C1.07310858 3.27185553 0.89263102 5.42947592 0.0625 8.75 C-0.22947266 9.94882813 -0.22947266 9.94882813 -0.52734375 11.171875 C-0.68332031 11.77515625 -0.83929687 12.3784375 -1 13 C-1.99 12.67 -2.98 12.34 -4 12 C-4.25 4.375 -4.25 4.375 -2 1 C-1.67 1.66 -1.34 2.32 -1 3 C-0.67 2.01 -0.34 1.02 0 0 Z " fill="#BA4BC9" transform="translate(32,69)"/>
<path d="M0 0 C0.33 1.65 0.66 3.3 1 5 C-0.98 5.33 -2.96 5.66 -5 6 C-5.33 4.02 -5.66 2.04 -6 0 C-3.50907189 -1.24546405 -2.58919267 -0.7767578 0 0 Z " fill="#C086D1" transform="translate(97,122)"/>
<path d="M0 0 C0.94875 0.04125 1.8975 0.0825 2.875 0.125 C2.90189216 1.60406892 2.92134621 3.08327483 2.9375 4.5625 C2.94910156 5.38621094 2.96070313 6.20992187 2.97265625 7.05859375 C2.875 9.125 2.875 9.125 1.875 10.125 C-0.12458364 10.16580783 -2.12545254 10.16754356 -4.125 10.125 C-4.125 9.795 -4.125 9.465 -4.125 9.125 C-2.475 9.125 -0.825 9.125 0.875 9.125 C0.875 7.145 0.875 5.165 0.875 3.125 C-2.095 2.63 -2.095 2.63 -5.125 2.125 C-3.125 0.125 -3.125 0.125 0 0 Z " fill="#B240C4" transform="translate(139.125,52.875)"/>
<path d="M0 0 C1.91541138 -0.10841951 3.83259773 -0.18578079 5.75 -0.25 C6.81734375 -0.29640625 7.8846875 -0.3428125 8.984375 -0.390625 C12.63802112 0.08264522 13.72228105 1.19155042 16 4 C15.30519531 3.83628906 14.61039063 3.67257813 13.89453125 3.50390625 C10.7647184 2.95904004 7.86201917 2.90261517 4.6875 2.9375 C3.08455078 2.95103516 3.08455078 2.95103516 1.44921875 2.96484375 C0.64097656 2.97644531 -0.16726562 2.98804688 -1 3 C-0.67 2.01 -0.34 1.02 0 0 Z " fill="#E8ECF5" transform="translate(43,51)"/>
<path d="M0 0 C0.33 0.99 0.66 1.98 1 3 C0.45730469 3.47050781 -0.08539063 3.94101563 -0.64453125 4.42578125 C-1.35996094 5.04839844 -2.07539062 5.67101562 -2.8125 6.3125 C-3.52019531 6.92738281 -4.22789063 7.54226562 -4.95703125 8.17578125 C-6.70136739 9.73334335 -8.36778041 11.32658875 -10 13 C-10.27734375 10.734375 -10.27734375 10.734375 -10 8 C-8.06640625 6.015625 -8.06640625 6.015625 -5.5625 4.25 C-4.73878906 3.65703125 -3.91507812 3.0640625 -3.06640625 2.453125 C-2.38449219 1.97359375 -1.70257813 1.4940625 -1 1 C-0.67 0.67 -0.34 0.34 0 0 Z " fill="#9F34B2" transform="translate(112,98)"/>
<path d="M0 0 C2.475 0.495 2.475 0.495 5 1 C5 4.63 5 8.26 5 12 C3 10 3 10 2 7 C1.01 7.495 1.01 7.495 0 8 C0 5.36 0 2.72 0 0 Z " fill="#CF6ADC" transform="translate(72,48)"/>
<path d="M0 0 C2.97 0.99 5.94 1.98 9 3 C8.67 3.99 8.34 4.98 8 6 C5.21788056 5.62403791 3.4120716 5.32681541 1.1875 3.5625 C0 2 0 2 0 0 Z " fill="#E4D6BD" transform="translate(104,45)"/>
<path d="M0 0 C4.875 4.625 4.875 4.625 6 8 C3.75 8.25 3.75 8.25 1 8 C-1.3125 6 -1.3125 6 -3 4 C-0.525 4.495 -0.525 4.495 2 5 C1.34 3.35 0.68 1.7 0 0 Z " fill="#171E35" transform="translate(128,62)"/>
<path d="M0 0 C0 0.99 0 1.98 0 3 C-1.8984375 4.68359375 -1.8984375 4.68359375 -4.375 6.4375 C-7.57447762 8.70760555 -9.52821527 10.32053817 -11 14 C-11.5625 11.375 -11.5625 11.375 -11 8 C-8.84573682 6.14602805 -6.60967092 4.74094854 -4.1640625 3.296875 C-1.89297246 2.05500632 -1.89297246 2.05500632 0 0 Z " fill="#9F2EB3" transform="translate(100,94)"/>
<path d="M0 0 C1.98 0 3.96 0 6 0 C6.33 1.32 6.66 2.64 7 4 C5.68 4.33 4.36 4.66 3 5 C2.01 3.35 1.02 1.7 0 0 Z " fill="#B766C9" transform="translate(65,119)"/>
<path d="M0 0 C0.66 0 1.32 0 2 0 C2 0.66 2 1.32 2 2 C2.66 2.33 3.32 2.66 4 3 C2.75 4.5625 2.75 4.5625 1 6 C-1.1875 5.6875 -1.1875 5.6875 -3 5 C-1.125 1.125 -1.125 1.125 0 0 Z " fill="#E1E5F0" transform="translate(101,101)"/>
<path d="M0 0 C2 1 4 2 6 3 C6 2.01 6 1.02 6 0 C6.66 0 7.32 0 8 0 C8.66 1.65 9.32 3.3 10 5 C7.25 5.3125 7.25 5.3125 4 5 C1.625 2.5 1.625 2.5 0 0 Z " fill="#BB4E75" transform="translate(120,62)"/>
<path d="M0 0 C3.66881155 0.70554068 6.70450534 2.27735506 10 4 C10 4.66 10 5.32 10 6 C6.33118845 5.29445932 3.29549466 3.72264494 0 2 C0 1.34 0 0.68 0 0 Z " fill="#DFD7AC" transform="translate(94,35)"/>
<path d="M0 0 C-1.23884319 0.72767003 -2.49168341 1.43154815 -3.75 2.125 C-4.79414062 2.71667969 -4.79414062 2.71667969 -5.859375 3.3203125 C-8 4 -8 4 -10.265625 3.1171875 C-10.83796875 2.74851563 -11.4103125 2.37984375 -12 2 C-10.75579353 1.4654744 -9.50429064 0.94791389 -8.25 0.4375 C-7.55390625 0.14746094 -6.8578125 -0.14257812 -6.140625 -0.44140625 C-3.69987216 -1.07831803 -2.3596345 -0.80248831 0 0 Z " fill="#CDCBE3" transform="translate(61,33)"/>
<path d="M0 0 C3.3125 -0.1875 3.3125 -0.1875 7 0 C7.99 0.99 8.98 1.98 10 3 C6.37 3 2.74 3 -1 3 C-0.67 2.01 -0.34 1.02 0 0 Z " fill="#CA73D8" transform="translate(33,27)"/>
<path d="M0 0 C0.7425 0.0825 1.485 0.165 2.25 0.25 C2.58 1.24 2.91 2.23 3.25 3.25 C0.94 3.25 -1.37 3.25 -3.75 3.25 C-4.08 4.24 -4.41 5.23 -4.75 6.25 C-5.41 5.59 -6.07 4.93 -6.75 4.25 C-3.42692308 0.31153846 -3.42692308 0.31153846 0 0 Z " fill="#C755D7" transform="translate(42.75,88.75)"/>
<path d="M0 0 C0.66 0 1.32 0 2 0 C2 1.32 2 2.64 2 4 C3.65 3.67 5.3 3.34 7 3 C6.01 4.485 6.01 4.485 5 6 C3.35 5.67 1.7 5.34 0 5 C-0.5625 3.0625 -0.5625 3.0625 -1 1 C-0.67 0.67 -0.34 0.34 0 0 Z " fill="#E4D3E9" transform="translate(117,48)"/>
<path d="M0 0 C2.375 0.25 2.375 0.25 5 1 C6.3125 3.0625 6.3125 3.0625 7 5 C4.625 4.75 4.625 4.75 2 4 C0.6875 1.9375 0.6875 1.9375 0 0 Z " fill="#F1E9CD" transform="translate(107,39)"/>
<path d="M0 0 C3.3 0.99 6.6 1.98 10 3 C9.01 3.66 8.02 4.32 7 5 C4.73828125 4.5390625 4.73828125 4.5390625 2.3125 3.625 C1.50425781 3.32851563 0.69601563 3.03203125 -0.13671875 2.7265625 C-0.75160156 2.48679688 -1.36648437 2.24703125 -2 2 C-1.34 1.34 -0.68 0.68 0 0 Z " fill="#EEE6C1" transform="translate(105,31)"/>
<path d="M0 0 C0.33 0 0.66 0 1 0 C1.33 3.3 1.66 6.6 2 10 C1.67 9.34 1.34 8.68 1 8 C0.34 8 -0.32 8 -1 8 C-1.04241723 5.66705225 -1.04092937 3.33297433 -1 1 C-0.67 0.67 -0.34 0.34 0 0 Z " fill="#C258D0" transform="translate(62,101)"/>
<path d="M0 0 C2 3 2 3 1.75 5.625 C1.5025 6.40875 1.255 7.1925 1 8 C0.01 8.495 0.01 8.495 -1 9 C-1 7.68 -1 6.36 -1 5 C-1.66 4.67 -2.32 4.34 -3 4 C-2.34 3.67 -1.68 3.34 -1 3 C-0.67 2.01 -0.34 1.02 0 0 Z " fill="#DC6B60" transform="translate(97,68)"/>
<path d="M0 0 C0.33 0.66 0.66 1.32 1 2 C2.65 2 4.3 2 6 2 C6 2.33 6 2.66 6 3 C0.51053913 4.12029814 -2.83430559 3.79217969 -8 2 C-8 1.67 -8 1.34 -8 1 C-5.36 1.33 -2.72 1.66 0 2 C0 1.34 0 0.68 0 0 Z " fill="#9D3AB1" transform="translate(134,59)"/>
<path d="M0 0 C0.99 0 1.98 0 3 0 C3.103125 0.61875 3.20625 1.2375 3.3125 1.875 C3.87525373 4.36526484 3.87525373 4.36526484 7 6 C6.01 6.33 5.02 6.66 4 7 C2 5.1875 2 5.1875 0 3 C0 2.01 0 1.02 0 0 Z " fill="#A0A5BC" transform="translate(101,97)"/>
<path d="M0 0 C0.33 0.66 0.66 1.32 1 2 C1.99 2.33 2.98 2.66 4 3 C3 4 3 4 0.93359375 4.09765625 C0.10988281 4.08605469 -0.71382813 4.07445313 -1.5625 4.0625 C-2.38878906 4.05347656 -3.21507812 4.04445313 -4.06640625 4.03515625 C-4.70449219 4.02355469 -5.34257813 4.01195313 -6 4 C-5.38125 3.71125 -4.7625 3.4225 -4.125 3.125 C-1.86674235 2.06279958 -1.86674235 2.06279958 0 0 Z " fill="#B245C3" transform="translate(65,113)"/>
<path d="M0 0 C2.475 0.99 2.475 0.99 5 2 C5 3.32 5 4.64 5 6 C3.68 5.67 2.36 5.34 1 5 C0.67 3.35 0.34 1.7 0 0 Z " fill="#B1B7CF" transform="translate(102,66)"/>
<path d="M0 0 C0.99 0.66 1.98 1.32 3 2 C2.01 3.485 2.01 3.485 1 5 C-0.32 4.67 -1.64 4.34 -3 4 C-2.01 2.68 -1.02 1.36 0 0 Z " fill="#C355D2" transform="translate(40,51)"/>
<path d="M0 0 C2.9719385 1.12451727 5.33440687 2.22293791 8 4 C6 5 6 5 4.0546875 4.44140625 C3.33539063 4.15136719 2.61609375 3.86132812 1.875 3.5625 C1.15054688 3.27503906 0.42609375 2.98757812 -0.3203125 2.69140625 C-1.15175781 2.34916016 -1.15175781 2.34916016 -2 2 C-1.34 1.34 -0.68 0.68 0 0 Z " fill="#C86BC5" transform="translate(106,43)"/>
<path d="M0 0 C1.9375 0.3125 1.9375 0.3125 4 1 C4.33 1.99 4.66 2.98 5 4 C4.34 4.66 3.68 5.32 3 6 C1.5 4.6875 1.5 4.6875 0 3 C0 2.01 0 1.02 0 0 Z " fill="#EAE4B7" transform="translate(123,38)"/>
<path d="M0 0 C0.66 0.99 1.32 1.98 2 3 C0.35 4.32 -1.3 5.64 -3 7 C-2.25 2.25 -2.25 2.25 0 0 Z " fill="#B1B8CF" transform="translate(100,98)"/>
<path d="M0 0 C1.32 1.32 2.64 2.64 4 4 C3.34 4 2.68 4 2 4 C1.67 5.32 1.34 6.64 1 8 C-1.125 3.375 -1.125 3.375 0 0 Z " fill="#C964D7" transform="translate(84,72)"/>
<path d="M0 0 C0.99 0 1.98 0 3 0 C3.33 1.65 3.66 3.3 4 5 C2.68 5 1.36 5 0 5 C0 3.35 0 1.7 0 0 Z " fill="#E6EAF3" transform="translate(107,68)"/>
<path d="M0 0 C0.66 0.33 1.32 0.66 2 1 C2 2.65 2 4.3 2 6 C1.01 6.33 0.02 6.66 -1 7 C-0.67 4.69 -0.34 2.38 0 0 Z " fill="#FCAD5F" transform="translate(92,61)"/>
<path d="M0 0 C0.66 0 1.32 0 2 0 C2 0.66 2 1.32 2 2 C2.99 2.33 3.98 2.66 5 3 C4.67 3.99 4.34 4.98 4 6 C3.01 6 2.02 6 1 6 C0.67 4.02 0.34 2.04 0 0 Z " fill="#5C4A78" transform="translate(118,46)"/>
</svg>
